<svg width="24" height="24" viewBox="0 0 24 24" xmlns="http://www.w3.org/2000/svg">
<path d="M11 14.59V3C11 2.73478 11.1054 2.48043 11.2929 2.29289C11.4804 2.10536 11.7348 2 12 2C12.2652 2 12.5196 2.10536 12.7071 2.29289C12.8946 2.48043 13 2.73478 13 3V14.59L16.3 11.29C16.4924 11.1274 16.7392 11.0435 16.9908 11.055C17.2425 11.0664 17.4805 11.1725 17.6574 11.3519C17.8343 11.5312 17.9369 11.7708 17.9448 12.0226C17.9527 12.2744 17.8653 12.5199 17.7 12.71L12.7 17.71C12.5131 17.8932 12.2618 17.9959 12 17.9959C11.7382 17.9959 11.4869 17.8932 11.3 17.71L6.3 12.71C6.13472 12.5199 6.04729 12.2744 6.05519 12.0226C6.06309 11.7708 6.16573 11.5312 6.34259 11.3519C6.51946 11.1725 6.75752 11.0664 7.00918 11.055C7.26084 11.0435 7.50755 11.1274 7.7 11.29L11 14.59ZM3 17C3 16.7348 3.10536 16.4804 3.29289 16.2929C3.48043 16.1054 3.73478 16 4 16C4.26522 16 4.51957 16.1054 4.70711 16.2929C4.89464 16.4804 5 16.7348 5 17V20H19V17C19 16.7348 19.1054 16.4804 19.2929 16.2929C19.4804 16.1054 19.7348 16 20 16C20.2652 16 20.5196 16.1054 20.7071 16.2929C20.8946 16.4804 21 16.7348 21 17V20C21 20.5304 20.7893 21.0391 20.4142 21.4142C20.0391 21.7893 19.5304 22 19 22H5C4.46957 22 3.96086 21.7893 3.58579 21.4142C3.21071 21.0391 3 20.5304 3 20V17Z" fill="#2C1D86"/>
</svg>
