<svg width="24" height="24" viewBox="0 0 24 24" fill="none" xmlns="http://www.w3.org/2000/svg">
<path d="M4 4H20C20.5304 4 21.0391 4.21071 21.4142 4.58579C21.7893 4.96086 22 5.46957 22 6V18C22 18.5304 21.7893 19.0391 21.4142 19.4142C21.0391 19.7893 20.5304 20 20 20H4C3.46957 20 2.96086 19.7893 2.58579 19.4142C2.21071 19.0391 2 18.5304 2 18V6C2 4.9 2.9 4 4 4ZM20 7.38V6H4V7.38L12 11.38L20 7.38V7.38ZM20 9.62L12.45 13.39C12.3104 13.4603 12.1563 13.497 12 13.497C11.8437 13.497 11.6896 13.4603 11.55 13.39L4 9.62V18H20V9.62V9.62Z" fill="#2C1D86"/>
</svg>
