<svg width="24" height="24" viewBox="0 0 24 24" fill="none" xmlns="http://www.w3.org/2000/svg">
<path d="M13.04 14.69L14.11 12.55C14.2176 12.3373 14.3976 12.1701 14.6177 12.0784C14.8377 11.9867 15.0832 11.9767 15.31 12.05L21.31 14.05C21.5105 14.1154 21.6852 14.2425 21.8091 14.4131C21.933 14.5837 21.9998 14.7891 22 15V20C22 20.5304 21.7893 21.0391 21.4142 21.4142C21.0391 21.7893 20.5304 22 20 22H18C13.7565 22 9.68687 20.3143 6.68629 17.3137C3.68571 14.3131 2 10.2435 2 6V4C2 2.9 2.9 2 4 2H9C9.20964 1.99946 9.41416 2.06482 9.58463 2.18685C9.7551 2.30887 9.88291 2.48138 9.95 2.68L11.95 8.68C12.0261 8.90811 12.0174 9.15598 11.9255 9.3782C11.8337 9.60043 11.6649 9.78212 11.45 9.89L9.3 10.96C10.189 12.5133 11.4767 13.801 13.03 14.69H13.04ZM8.28 4H4V6C4 9.71303 5.475 13.274 8.1005 15.8995C10.726 18.525 14.287 20 18 20H20V15.72L15.5 14.22L14.38 16.48C14.2638 16.7089 14.064 16.8843 13.822 16.9699C13.58 17.0555 13.3143 17.0448 13.08 16.94C10.4089 15.7359 8.26855 13.5991 7.06 10.93C6.95517 10.6957 6.94446 10.43 7.03008 10.188C7.11571 9.94604 7.29113 9.74624 7.52 9.63L9.78 8.49L8.28 4Z" fill="#2C1D86"/>
</svg>
