<svg width="32" height="32" viewBox="0 0 32 32" fill="none" xmlns="http://www.w3.org/2000/svg">
<path d="M21.6532 19.7733C21.8716 20.0283 21.9857 20.3564 21.9728 20.692C21.9598 21.0276 21.8207 21.3459 21.5832 21.5834C21.3458 21.8208 21.0275 21.9599 20.6919 21.9729C20.3563 21.9859 20.0282 21.8717 19.7732 21.6533L15.9998 17.8799L12.2265 21.6533C11.9714 21.8717 11.6433 21.9859 11.3078 21.9729C10.9722 21.9599 10.6539 21.8208 10.4164 21.5834C10.1789 21.3459 10.0398 21.0276 10.0269 20.692C10.0139 20.3564 10.1281 20.0283 10.3465 19.7733L14.1198 15.9999L10.3465 12.2266C10.1281 11.9715 10.0139 11.6434 10.0269 11.3079C10.0398 10.9723 10.1789 10.654 10.4164 10.4165C10.6539 10.1791 10.9722 10.04 11.3078 10.027C11.6433 10.014 11.9714 10.1282 12.2265 10.3466L15.9998 14.1199L19.7732 10.3466C20.0282 10.1282 20.3563 10.014 20.6919 10.027C21.0275 10.04 21.3458 10.1791 21.5832 10.4165C21.8207 10.654 21.9598 10.9723 21.9728 11.3079C21.9857 11.6434 21.8716 11.9715 21.6532 12.2266L17.8798 15.9999L21.6532 19.7733V19.7733Z" fill="#2C1D86"/>
</svg>
